# xmcd
#
# Track frame offsets: 
#        150
#        14517
#        27466
#        39165
#        51236
#        64293
#        79409
#        92086
#        106698
#        121193
#        133215
#        148537
#        160852
#        172823
#        187774
#        202862
#        216696
#        229716
#        241132
#        253913
#        268181
#        281074
#        293605
#        307865
#        322279
#        334517
#
# Disc length: 4651 seconds
#
# Revision: 0
# Processed by: cddbd v1.5.2PL0 Copyright (c) Steve Scherf et al.
# Submitted via: ExactAudioCopy v0.95b4
#
DISCID=7a12291a
DTITLE=Robert Nighthawk - Prowling With The Nighthawk
DYEAR=2005
DGENRE=Blues
TTITLE0=Tough Luck
TTITLE1=Six Three O
TTITLE2=Take It Easy Baby
TTITLE3=Lonesome World
TTITLE4=Friar's Point Blues
TTITLE5=Ol Mose
TTITLE6=Sweet Pepper Mama
TTITLE7=Return Mail Blues
TTITLE8=My Friend Has Forsaken Me
TTITLE9=G-Man
TTITLE10=Every Day and Night
TTITLE11=The Moon Is Rising
TTITLE12=Kansas City Blues
TTITLE13=Crying Won't Help You
TTITLE14=CNA
TTITLE15=Black Angel Blues
TTITLE16=My Sweet Lovin' Woman
TTITLE17=Don't Mistreat Your Woman
TTITLE18=Maggie Campbell -1
TTITLE19=Prowling Nighthawk
TTITLE20=Jackson Town Girl
TTITLE21=Feel So Bad
TTITLE22=Mamie Lee
TTITLE23=Freight Train Blues
TTITLE24=Take It Easy Baby
TTITLE25=Annie Lee Blues
EXTD=
EXTT0=
EXTT1=
EXTT2=
EXTT3=
EXTT4=
EXTT5=
EXTT6=
EXTT7=
EXTT8=
EXTT9=
EXTT10=
EXTT11=
EXTT12=
EXTT13=
EXTT14=
EXTT15=
EXTT16=
EXTT17=
EXTT18=
EXTT19=
EXTT20=
EXTT21=
EXTT22=
EXTT23=
EXTT24=
EXTT25=
PLAYORDER=
